<svg width="1200" height="900" viewBox="0 0 1200 900" fill="none" xmlns="http://www.w3.org/2000/svg">
  <rect width="1200" height="900" rx="48" fill="#F4F7FC"/>
  <rect x="72" y="72" width="1056" height="756" rx="40" fill="#EFF4FB"/>
  <rect x="117" y="118" width="966" height="664" rx="30" fill="#FCFAF6"/>
  <rect x="286" y="282" width="622" height="28" rx="14" fill="#8C6239"/>
  <rect x="318" y="308" width="18" height="86" rx="9" fill="#5D8DE7"/>
  <rect x="858" y="308" width="18" height="86" rx="9" fill="#5D8DE7"/>
  <rect x="410" y="220" width="82" height="62" rx="16" fill="#D6E5FF"/>
  <rect x="536" y="198" width="94" height="84" rx="18" fill="#C9D8F5"/>
  <rect x="682" y="232" width="68" height="50" rx="16" fill="#E3EAF6"/>
  <path d="M760 486L892 354" stroke="#0C2348" stroke-width="24" stroke-linecap="round"/>
  <path d="M726 452L854 324" stroke="#5D8DE7" stroke-width="24" stroke-linecap="round"/>
  <rect x="348" y="583" width="306" height="22" rx="11" fill="#0C2348"/>
  <rect x="348" y="621" width="236" height="18" rx="9" fill="#8AA6D8"/>
  <text x="132" y="170" fill="#0C2348" font-family="Arial, sans-serif" font-size="36" font-weight="700">Shelf and hardware install</text>
  <text x="132" y="218" fill="#66758F" font-family="Arial, sans-serif" font-size="24">Useful, low-drama home setup help that feels premium instead of pieced together.</text>
</svg>
